<?xml version="1.0" encoding="UTF-8"?>
<svg id="NEW" xmlns="http://www.w3.org/2000/svg" xmlns:xlink="http://www.w3.org/1999/xlink" viewBox="0 0 729.83 211.91">
  <defs>
    <style>
      .cls-1 {
        fill: url(#linear-gradient);
      }

      .cls-1, .cls-2, .cls-3, .cls-4 {
        stroke-width: 0px;
      }

      .cls-2 {
        fill: url(#linear-gradient-2);
      }

      .cls-3 {
        fill: #242422;
      }

      .cls-4 {
        fill: #fff;
      }
    </style>
    <linearGradient id="linear-gradient" x1="62.3" y1="45.89" x2="181.4" y2="154.78" gradientUnits="userSpaceOnUse">
      <stop offset="0" stop-color="#0d6d5d"/>
      <stop offset=".14" stop-color="#177358"/>
      <stop offset=".37" stop-color="#31834c"/>
      <stop offset=".67" stop-color="#5d9e38"/>
      <stop offset="1" stop-color="#95c11f"/>
    </linearGradient>
    <linearGradient id="linear-gradient-2" x1="80.82" y1="112.94" x2="126.34" y2="213.15" gradientUnits="userSpaceOnUse">
      <stop offset="0" stop-color="#0d6d5d"/>
      <stop offset=".13" stop-color="#147159"/>
      <stop offset=".33" stop-color="#287e50"/>
      <stop offset=".58" stop-color="#4a9340"/>
      <stop offset=".85" stop-color="#78af2b"/>
      <stop offset="1" stop-color="#95c11f"/>
    </linearGradient>
  </defs>
  <g>
    <path class="cls-3" d="m0,59.11l40.3-24.59c-2.77,6.81-4.47,13.9-5.09,21.19L0,77.26v-18.15Z"/>
    <path class="cls-3" d="m96.72,18.05l-38.33,23.47c3.02-10.62,9.55-20.66,19.47-29.91L96.72.1l96.71,59.02v18.15L96.72,18.05Z"/>
    <path class="cls-3" d="m96.39,211.81c-.85-.23-20.94-5.87-41.3-24.8-18.72-17.39-40.91-49.71-40.27-104.92v-.68s15.15-9.67,15.15-9.67l-.05,2.34c-.65,30.1,4.67,55.54,15.79,75.62,10.91,19.68,27.73,34.79,49.99,44.89l1.03.47,1.03-.47c15.35-6.96,28.17-16.33,38.13-27.85,6.73,1.2,12.98,1.74,18.43,2.07-23.74,33.44-55.9,42.61-57.27,42.99l-.33.09-.33-.09Z"/>
    <path class="cls-4" d="m68.97,38.87h0c.03-.1.06-.19.1-.29-.04.1-.06.19-.09.29Z"/>
    <g>
      <path class="cls-1" d="m203.77,133.11c-.71,12.98-14.07,30.06-46.66,28.36-19.9-1.03-42.29-3.84-74.62-26.68C32.89,94.84,26.36,34.35,79.89,0c-73.9,58.19-1.34,142.07,71.5,144.93,5.26.22,10.54,0,15.76-.67,19.52-3.13,23.63-14.96,8.5-26.9-.08.46-.17.92-.26,1.37-.36,1.84-.76,3.65-1.17,5.38,0,0-.03.11-.04.2l-.1.33v.05c-.91,3.75-1.98,7.46-3.16,11.02-1.47.45-3.11.82-4.9,1.11-3.43.44-7.03.68-10.64.68-.61,0-1.23,0-1.84-.03,7.14-17.74,10.5-39.06,9.99-63.39l-.05-2.34,15.13,9.67v.68c.03,1.27.03,2.54.02,3.8,0,.97-.02,1.93-.04,2.9-.04,1.56-.08,2.99-.14,4.33,20.06,13.7,25.98,29.23,25.33,39.98Z"/>
      <path class="cls-2" d="m154.31,168.83c-23.74,33.44-55.9,42.61-57.27,42.99l-.33.09s-.11-.03-.33-.09c-.03,0-.06-.02-.11-.03,0,0-.02,0-.02,0-.03,0-.06-.02-.1-.03-.06-.02-.12-.04-.2-.06-.02,0-.04,0-.06-.02-1.47-.45-5.95-1.9-12.13-4.9-.24-.11-.48-.24-.71-.35-.57-.28-1.17-.58-1.77-.9-1.33-.7-2.74-1.46-4.2-2.3-.59-.34-1.19-.69-1.79-1.05-.31-.18-.61-.36-.92-.55-.63-.38-1.25-.78-1.9-1.18.41,0,13.58,0,24.25-5.37l1.03-.47c15.34-6.96,28.17-16.33,38.12-27.86,6.73,1.21,12.98,1.75,18.43,2.07Z"/>
    </g>
  </g>
  <g>
    <g>
      <path class="cls-3" d="m266.53,121.2l-8.16-62.07h11.62l6.03,53.91h1.6l7.8-53.91h20.22l7.8,53.91h1.6l6.03-53.91h11.62l-8.16,62.07h-20.22l-7.98-55.15h-1.6l-7.98,55.15h-20.22Z"/>
      <path class="cls-3" d="m334.36,121.2l16.32-62.07h20.39l16.32,62.07h-12.06l-3.37-13.66h-22.17l-3.37,13.66h-12.06Zm18.18-24.47h16.67l-7.54-30.24h-1.6l-7.54,30.24Z"/>
      <path class="cls-3" d="m394.84,121.2v-62.07h26.96c3.9,0,7.3.68,10.2,2.04,2.9,1.36,5.14,3.28,6.74,5.76,1.6,2.48,2.39,5.41,2.39,8.78v1.06c0,3.72-.89,6.74-2.66,9.04-1.77,2.31-3.96,3.99-6.56,5.05v1.6c2.36.12,4.2.93,5.5,2.44,1.3,1.51,1.95,3.5,1.95,5.99v20.31h-11.7v-18.62c0-1.42-.37-2.57-1.11-3.46-.74-.89-1.97-1.33-3.68-1.33h-16.32v23.41h-11.7Zm11.7-34.05h14.01c2.78,0,4.95-.75,6.52-2.26,1.57-1.51,2.35-3.5,2.35-5.99v-.89c0-2.48-.77-4.48-2.31-5.99-1.54-1.51-3.72-2.26-6.56-2.26h-14.01v17.38Z"/>
      <path class="cls-3" d="m450.87,121.2v-62.07h21.72l10.73,54.09h1.6l10.73-54.09h21.72v62.07h-11.35v-53.47h-1.6l-10.64,53.47h-19.33l-10.64-53.47h-1.6v53.47h-11.35Z"/>
      <path class="cls-3" d="m540.61,121.2l-15.78-62.07h12.06l13.12,54.53h1.24l13.12-54.53h12.06l-15.78,62.07h-20.04Z"/>
      <path class="cls-3" d="m574.75,121.2l16.32-62.07h20.39l16.32,62.07h-12.06l-3.37-13.66h-22.17l-3.37,13.66h-12.06Zm18.18-24.47h16.67l-7.54-30.24h-1.6l-7.54,30.24Z"/>
      <path class="cls-3" d="m656.41,122.44c-4.79,0-9.02-.86-12.68-2.57-3.67-1.71-6.53-4.17-8.6-7.36-2.07-3.19-3.1-7.03-3.1-11.53v-2.48h11.53v2.48c0,3.72,1.15,6.52,3.46,8.38,2.31,1.86,5.44,2.79,9.4,2.79s7.02-.8,9-2.39c1.98-1.6,2.97-3.64,2.97-6.12,0-1.71-.49-3.1-1.46-4.17-.98-1.06-2.39-1.94-4.26-2.62-1.86-.68-4.12-1.31-6.78-1.91l-2.04-.44c-4.26-.94-7.91-2.14-10.95-3.59-3.05-1.45-5.38-3.35-7-5.72-1.63-2.36-2.44-5.44-2.44-9.22s.9-7.02,2.7-9.71c1.8-2.69,4.34-4.76,7.63-6.21,3.28-1.45,7.14-2.17,11.57-2.17s8.38.75,11.84,2.26c3.46,1.51,6.18,3.75,8.16,6.74,1.98,2.99,2.97,6.73,2.97,11.22v2.66h-11.53v-2.66c0-2.36-.46-4.27-1.37-5.72-.92-1.45-2.23-2.51-3.95-3.19-1.72-.68-3.75-1.02-6.12-1.02-3.55,0-6.16.67-7.85,2s-2.53,3.15-2.53,5.45c0,1.54.4,2.84,1.2,3.9.8,1.06,2,1.95,3.59,2.66,1.6.71,3.64,1.33,6.12,1.86l2.04.44c4.43.95,8.29,2.16,11.57,3.64,3.28,1.48,5.84,3.43,7.67,5.85,1.83,2.42,2.75,5.53,2.75,9.31s-.96,7.11-2.88,9.98c-1.92,2.87-4.64,5.11-8.16,6.74-3.52,1.63-7.67,2.44-12.46,2.44Z"/>
      <path class="cls-3" d="m700.04,121.2v-51.43h-18.09v-10.64h47.88v10.64h-18.09v51.43h-11.7Z"/>
    </g>
    <g>
      <path class="cls-3" d="m266.27,172.15v-31.95h3.83v31.95h-3.83Z"/>
      <path class="cls-3" d="m297.49,172.79c-2.31,0-4.38-.41-6.21-1.23-1.83-.82-3.26-2.06-4.31-3.72-1.05-1.66-1.57-3.73-1.57-6.23v-.96h3.79v.96c0,2.65.78,4.62,2.33,5.91,1.55,1.29,3.54,1.94,5.98,1.94s4.4-.56,5.71-1.69c1.31-1.13,1.96-2.54,1.96-4.24,0-1.19-.3-2.13-.89-2.83-.59-.7-1.42-1.27-2.49-1.71-1.07-.44-2.31-.83-3.74-1.16l-2.37-.59c-1.86-.49-3.5-1.08-4.93-1.78-1.43-.7-2.55-1.62-3.35-2.76s-1.21-2.61-1.21-4.4.45-3.35,1.35-4.66c.9-1.31,2.16-2.31,3.79-3.01,1.63-.7,3.51-1.05,5.64-1.05s4.1.37,5.82,1.12c1.72.75,3.07,1.84,4.06,3.29.99,1.45,1.48,3.26,1.48,5.45v1.92h-3.79v-1.92c0-1.55-.33-2.8-.98-3.74-.65-.94-1.55-1.64-2.69-2.1s-2.44-.68-3.9-.68c-2.1,0-3.79.46-5.07,1.39-1.28.93-1.92,2.24-1.92,3.95,0,1.13.27,2.04.82,2.74.55.7,1.32,1.27,2.33,1.71,1,.44,2.21.83,3.61,1.16l2.37.59c1.86.4,3.52.94,5,1.62,1.48.68,2.65,1.61,3.54,2.78.88,1.17,1.32,2.7,1.32,4.59s-.47,3.53-1.42,4.93c-.94,1.4-2.27,2.49-3.99,3.26-1.72.78-3.74,1.16-6.05,1.16Z"/>
      <path class="cls-3" d="m335.87,172.79c-3.8,0-6.84-1.1-9.1-3.31-2.27-2.21-3.4-5.42-3.4-9.65v-7.3c0-4.23,1.13-7.45,3.4-9.65,2.27-2.21,5.3-3.31,9.1-3.31s6.88,1.1,9.15,3.31c2.27,2.21,3.4,5.42,3.4,9.65v7.3c0,4.23-1.13,7.45-3.4,9.65-2.27,2.21-5.32,3.31-9.15,3.31Zm0-3.42c2.77,0,4.91-.83,6.44-2.49,1.52-1.66,2.28-3.96,2.28-6.91v-7.58c0-2.95-.76-5.26-2.28-6.91-1.52-1.66-3.67-2.49-6.44-2.49s-4.87.83-6.39,2.49c-1.52,1.66-2.28,3.96-2.28,6.91v7.58c0,2.95.76,5.26,2.28,6.91,1.52,1.66,3.65,2.49,6.39,2.49Z"/>
      <path class="cls-3" d="m364.26,172.15v-31.95h3.83v28.48h16.16v3.47h-19.99Z"/>
      <path class="cls-3" d="m396.12,172.15l9.86-31.95h6.75l9.86,31.95h-3.97l-2.46-8.08h-13.6l-2.46,8.08h-3.97Zm7.39-11.55h11.64l-5.48-18.07h-.64l-5.52,18.07Z"/>
      <path class="cls-3" d="m441.03,172.15v-28.48h-10.27v-3.47h24.37v3.47h-10.27v28.48h-3.83Z"/>
      <path class="cls-3" d="m469.46,172.15v-31.95h3.83v31.95h-3.83Z"/>
      <path class="cls-3" d="m490.04,172.15v-31.95h19.67v3.47h-15.84v10.68h14.56v3.47h-14.56v10.86h16.06v3.47h-19.9Z"/>
    </g>
  </g>
</svg>